<?xml version="1.0" encoding="UTF-8" standalone="no"?>
<!-- Created with Inkscape (http://www.inkscape.org/) -->

<svg
   width="291.00858mm"
   height="38.124805mm"
   viewBox="0 0 291.00858 38.124806"
   version="1.1"
   id="svg1"
   sodipodi:docname="ScribeREADER LOGO.svg"
   inkscape:version="1.3.2 (091e20e, 2023-11-25, custom)"
   xmlns:inkscape="http://www.inkscape.org/namespaces/inkscape"
   xmlns:sodipodi="http://sodipodi.sourceforge.net/DTD/sodipodi-0.dtd"
   xmlns="http://www.w3.org/2000/svg"
   xmlns:svg="http://www.w3.org/2000/svg">
  <sodipodi:namedview
     id="namedview1"
     pagecolor="#ffffff"
     bordercolor="#000000"
     borderopacity="0.25"
     inkscape:showpageshadow="2"
     inkscape:pageopacity="0.0"
     inkscape:pagecheckerboard="0"
     inkscape:deskcolor="#d1d1d1"
     inkscape:document-units="mm"
     inkscape:zoom="1.6174566"
     inkscape:cx="549.01009"
     inkscape:cy="72.335789"
     inkscape:window-width="1920"
     inkscape:window-height="992"
     inkscape:window-x="-8"
     inkscape:window-y="1342"
     inkscape:window-maximized="1"
     inkscape:current-layer="svg1" />
  <defs
     id="defs1" />
  <path
     style="font-weight:300;font-size:50.8px;font-family:'Inter Display';-inkscape-font-specification:'Inter Display Light';letter-spacing:-1.5875px;display:inline;stroke-width:2.16958"
     d="m 13.146484,38.099999 q -3.9687499,0 -6.8957029,-1.389062 Q 3.323828,35.29707 1.6867187,32.742187 0.074414,30.162499 0,26.689843 h 3.4230468 q 0.099219,3.844727 2.6541015,6.101953 2.5796878,2.232422 7.0693357,2.232422 4.266406,0 6.870898,-1.984375 2.604493,-1.984375 2.604493,-5.283398 0,-2.530078 -1.761133,-4.142383 -1.761133,-1.612305 -5.92832,-2.728516 L 10.790039,19.769335 Q 5.5562499,18.405078 3.1749999,16.098242 0.79375,13.791406 0.79375,10.219531 0.79375,7.1685546 2.3068359,4.8865234 3.8447265,2.5796875 6.5732421,1.2898438 9.3265621,0 12.948047,0 q 3.621484,0 6.30039,1.3642578 2.703711,1.3394531 4.216797,3.7951171 1.53789,2.4556641 1.661914,5.7546871 H 21.80332 Q 21.580078,7.3669921 19.174023,5.233789 16.767968,3.1005859 12.848828,3.1005859 q -2.530078,0 -4.5144532,0.8929688 Q 6.3748046,4.8865234 5.2337889,6.4740234 4.117578,8.0367187 4.117578,10.070703 q 0,2.356445 1.7611328,3.91914 1.7611328,1.562696 5.7794922,2.629297 l 4.191992,1.141016 q 5.18418,1.364258 7.664648,3.770312 2.480469,2.38125 2.480469,6.101953 0,3.100586 -1.612305,5.457031 -1.612304,2.356446 -4.514453,3.695899 -2.877343,1.314648 -6.72207,1.314648 z m 26.9875,-0.04961 q -3.54707,0 -6.250781,-1.736328 -2.678906,-1.736328 -4.191992,-4.81211 -1.488281,-3.075781 -1.488281,-7.044531 0,-3.96875 1.488281,-7.044531 1.513086,-3.100586 4.191992,-4.836914 2.703711,-1.761133 6.250781,-1.761133 2.877344,0 5.18418,1.165821 2.306836,1.141015 3.770312,3.199804 1.488281,2.033985 1.909961,4.688086 h -3.249414 q -0.545703,-2.728515 -2.530078,-4.415234 -1.95957,-1.711524 -5.084961,-1.711524 -3.96875,0 -6.35,2.951758 -2.356445,2.951758 -2.356445,7.763867 0,4.787305 2.356445,7.739063 2.356445,2.926953 6.35,2.926953 3.150195,0 5.035352,-1.661914 1.885156,-1.686719 2.530078,-4.464844 h 3.299023 q -0.42168,2.604492 -1.909961,4.663281 -1.488281,2.033985 -3.795117,3.22461 -2.282031,1.16582 -5.159375,1.16582 z M 54.19824,37.529491 V 11.335742 h 3.050976 v 4.365625 h 0.07441 q 0.818555,-2.108399 2.604492,-3.398242 1.810743,-1.289844 4.39043,-1.289844 0.471289,0 0.79375,0.04961 0.347266,0.02481 0.595313,0.04961 v 3.199804 q -0.223243,-0.04961 -0.719336,-0.124023 -0.496094,-0.07441 -1.190625,-0.07441 -2.678907,0 -4.564063,1.810742 -1.860351,1.810742 -1.860351,5.233789 v 16.371093 z m 13.766605,0 V 11.335742 h 3.175 v 26.193749 z m 1.5875,-31.8740223 q -0.942578,0 -1.637109,-0.6697266 -0.669727,-0.6697265 -0.669727,-1.6371093 0,-0.9673828 0.669727,-1.6371094 0.694531,-0.6697265 1.637109,-0.6697265 0.942578,0 1.612305,0.6697265 0.694531,0.6697266 0.694531,1.6371094 0,0.9673828 -0.694531,1.6371093 -0.669727,0.6697266 -1.612305,0.6697266 z M 88.007029,38.000781 q -2.951757,0 -5.333007,-1.438672 -2.356446,-1.438672 -3.571875,-3.993555 h -0.02481 v 4.960937 H 75.951951 V 0.5705078 h 3.175 V 16.271875 h 0.04961 q 1.091406,-2.505274 3.472656,-3.943946 2.406055,-1.463476 5.357812,-1.463476 3.348633,0 5.903516,1.711523 2.579687,1.711524 4.043164,4.7625 1.463474,3.050977 1.463474,7.094141 0,4.043164 -1.463474,7.118945 -1.438672,3.050976 -4.018359,4.7625 -2.554883,1.686719 -5.928321,1.686719 z m -0.446484,-2.926954 q 3.745508,0 6.176367,-2.75332 2.455664,-2.778125 2.455664,-7.88789 0,-5.109766 -2.455664,-7.887891 -2.430859,-2.778125 -6.176367,-2.778125 -3.943945,0 -6.300391,2.902149 -2.356445,2.902148 -2.356445,7.763867 0,4.861718 2.356445,7.763867 2.356446,2.877343 6.300391,2.877343 z M 113.2334,38.05039 q -3.6959,0 -6.3748,-1.761133 -2.6541,-1.761133 -4.11758,-4.812109 -1.43867,-3.075781 -1.43867,-7.019727 0,-3.943945 1.48828,-7.019726 1.51308,-3.100586 4.14238,-4.861719 2.6541,-1.761133 6.10195,-1.761133 3.57188,0 6.20118,1.736329 2.62929,1.711523 4.06797,4.762499 1.43867,3.026172 1.43867,6.945313 v 0.992187 h -20.26543 q 0.0992,4.365625 2.43086,7.118946 2.33164,2.75332 6.32519,2.75332 2.97656,0 5.06016,-1.488281 2.1084,-1.488282 2.80293,-3.943946 h 3.1998 q -0.5209,2.505274 -2.1084,4.39043 -1.56269,1.885156 -3.89433,2.926953 -2.30684,1.041797 -5.06016,1.041797 z m -8.73125,-15.602148 h 17.04082 q -0.24804,-3.943946 -2.57969,-6.35 -2.33164,-2.406055 -5.92832,-2.406055 -3.57187,0 -5.87871,2.406055 -2.30683,2.38125 -2.6541,6.35 z"
     id="path1" />
  <path
     style="font-weight:900;font-size:50.8px;font-family:'Inter Display';-inkscape-font-specification:'Inter Display Heavy';letter-spacing:-1.5875px;display:inline;stroke-width:2.16958"
     d="M 126.77677,37.529491 V 0.5705078 h 15.70136 q 4.41524,0 7.63985,1.5875 3.22461,1.5626953 4.96093,4.4648437 1.76114,2.8773437 1.76114,6.8460935 0,3.447851 -1.48828,6.077148 -1.46348,2.604492 -4.14239,4.191992 l 6.77168,13.791406 h -10.74043 l -5.53144,-11.558984 h -4.61367 v 11.558984 z m 10.31875,-19.546093 h 4.61367 q 2.33164,0 3.6959,-1.240234 1.36425,-1.240235 1.36425,-3.274219 0,-2.033984 -1.36425,-3.274219 -1.36426,-1.2402338 -3.6959,-1.2402338 h -4.61367 z m 33.48633,20.141406 q -4.06797,0 -7.21817,-1.736328 -3.15019,-1.761133 -4.93613,-4.861719 -1.76113,-3.100586 -1.76113,-7.09414 0,-4.01836 1.76113,-7.094141 1.76113,-3.100586 4.83691,-4.836914 3.10059,-1.761133 7.11895,-1.761133 4.01836,0 7.11894,1.711524 3.10059,1.711523 4.83692,4.737695 1.76113,3.026172 1.76113,6.970117 v 2.654102 h -17.80977 q 0.0496,2.083593 1.28985,3.249414 1.24023,1.16582 3.39824,1.16582 1.5875,0 2.70371,-0.595313 1.14102,-0.595312 1.53789,-1.661914 h 8.78086 q -0.47129,2.678907 -2.35644,4.737696 -1.88516,2.058789 -4.7625,3.249414 -2.85254,1.16582 -6.30039,1.16582 z m -4.2168,-16.867187 h 8.58242 q -0.24805,-1.612305 -1.36426,-2.505274 -1.11621,-0.917773 -2.92695,-0.917773 -1.81074,0 -2.92695,0.917773 -1.11621,0.892969 -1.36426,2.505274 z m 27.85566,16.743164 q -3.94394,0 -6.44922,-1.909961 -2.48046,-1.909961 -2.48046,-5.804297 0,-2.926953 1.33945,-4.688086 1.33945,-1.785938 3.62148,-2.654102 2.28203,-0.868164 5.10977,-1.041796 3.47265,-0.223243 4.91133,-0.719336 1.43867,-0.496094 1.43867,-1.562696 v -0.09922 q 0,-0.868164 -0.81856,-1.364258 -0.79375,-0.520899 -2.158,-0.520899 -3.00137,0 -3.27422,2.38125 h -9.07852 q 0.32246,-4.464843 3.52227,-6.870898 3.1998,-2.406055 9.22734,-2.406055 6.07715,0 9.22734,2.406055 3.175,2.406055 3.175,6.870898 v 17.512109 h -9.67382 v -3.671093 h -0.0992 q -1.28985,2.33164 -3.175,3.249414 -1.86035,0.892969 -4.36563,0.892969 z m 3.22461,-6.176368 q 1.61231,0 2.97656,-0.917773 1.38907,-0.917773 1.38907,-2.654102 v -2.083593 q -1.41387,0.496093 -3.96875,0.942578 -1.51309,0.248047 -2.40606,0.917773 -0.86816,0.644922 -0.86816,1.661914 0,0.992188 0.79375,1.562696 0.81855,0.570507 2.08359,0.570507 z m 27.08672,6.300391 q -3.42305,0 -5.97793,-1.686719 -2.53008,-1.711523 -3.94394,-4.787304 -1.38907,-3.100586 -1.38907,-7.267774 0,-4.018359 1.43868,-7.09414 1.43867,-3.075781 3.96875,-4.81211 2.53007,-1.736328 5.80429,-1.736328 2.55489,0 4.31602,0.992188 1.76113,0.967383 3.00136,3.026172 h 0.0248 V 0.5705078 h 9.92187 V 37.529491 h -9.82265 v -4.067968 h -0.0248 q -0.89297,2.306836 -2.80293,3.497461 -1.90996,1.16582 -4.51445,1.16582 z m 2.95176,-7.788672 q 2.03398,0 3.32383,-1.612304 1.31465,-1.63711 1.31465,-4.340821 0,-2.703711 -1.31465,-4.291211 -1.28985,-1.612304 -3.32383,-1.612304 -2.03399,0 -3.1502,1.612304 -1.0914,1.5875 -1.0914,4.291211 0,2.703711 1.0914,4.340821 1.11621,1.612304 3.1502,1.612304 z m 29.81522,7.788672 q -4.06796,0 -7.21816,-1.736328 -3.1502,-1.761133 -4.93613,-4.861719 -1.76114,-3.100586 -1.76114,-7.09414 0,-4.01836 1.76114,-7.094141 1.76113,-3.100586 4.83691,-4.836914 3.10059,-1.761133 7.11895,-1.761133 4.01836,0 7.11894,1.711524 3.10059,1.711523 4.83692,4.737695 1.76113,3.026172 1.76113,6.970117 v 2.654102 h -17.80977 q 0.0496,2.083593 1.28985,3.249414 1.24023,1.16582 3.39824,1.16582 1.5875,0 2.70371,-0.595313 1.14102,-0.595312 1.53789,-1.661914 h 8.78086 q -0.47129,2.678907 -2.35645,4.737696 -1.88515,2.058789 -4.7625,3.249414 -2.85253,1.16582 -6.30039,1.16582 z m -4.21679,-16.867187 h 8.58242 q -0.24805,-1.612305 -1.36426,-2.505274 -1.11621,-0.917773 -2.92695,-0.917773 -1.81074,0 -2.92696,0.917773 -1.11621,0.892969 -1.36425,2.505274 z m 19.32285,16.271874 V 11.335742 h 9.62422 v 4.7625 h 0.0496 q 0.71933,-2.654102 2.23242,-3.695899 1.51308,-1.066601 4.2168,-1.066601 h 2.48046 v 7.9375 h -3.62148 q -2.33164,0 -3.6959,1.53789 -1.36426,1.537891 -1.36426,4.167188 v 12.551171 z"
     id="path2" />
</svg>
