<?xml version="1.0" encoding="UTF-8" standalone="no"?>
<!-- Created with Inkscape (http://www.inkscape.org/) -->

<svg
   width="238.86914mm"
   height="38.149609mm"
   viewBox="0 0 238.86914 38.149609"
   version="1.1"
   id="svg1"
   sodipodi:docname="ScribeCMS LOGO.svg"
   inkscape:version="1.3.2 (091e20e, 2023-11-25, custom)"
   xmlns:inkscape="http://www.inkscape.org/namespaces/inkscape"
   xmlns:sodipodi="http://sodipodi.sourceforge.net/DTD/sodipodi-0.dtd"
   xmlns="http://www.w3.org/2000/svg"
   xmlns:svg="http://www.w3.org/2000/svg">
  <sodipodi:namedview
     id="namedview1"
     pagecolor="#ffffff"
     bordercolor="#000000"
     borderopacity="0.25"
     inkscape:showpageshadow="2"
     inkscape:pageopacity="0.0"
     inkscape:pagecheckerboard="0"
     inkscape:deskcolor="#d1d1d1"
     inkscape:document-units="mm"
     inkscape:zoom="1.6174566"
     inkscape:cx="549.62835"
     inkscape:cy="72.335789"
     inkscape:window-width="1920"
     inkscape:window-height="992"
     inkscape:window-x="-8"
     inkscape:window-y="1342"
     inkscape:window-maximized="1"
     inkscape:current-layer="svg1" />
  <defs
     id="defs1" />
  <path
     style="font-weight:300;font-size:50.8px;font-family:'Inter Display';-inkscape-font-specification:'Inter Display Light';letter-spacing:-1.5875px;display:inline;stroke-width:2.16958"
     d="m 13.146484,38.124804 q -3.9687499,0 -6.8957029,-1.389062 Q 3.323828,35.321875 1.6867187,32.766992 0.074414,30.187304 0,26.714648 h 3.4230468 q 0.099219,3.844727 2.6541015,6.101953 2.5796878,2.232422 7.0693357,2.232422 4.266406,0 6.870898,-1.984375 2.604493,-1.984375 2.604493,-5.283398 0,-2.530078 -1.761133,-4.142383 -1.761133,-1.612305 -5.92832,-2.728516 L 10.790039,19.79414 Q 5.5562499,18.429883 3.1749999,16.123047 0.79375,13.816211 0.79375,10.244336 q 0,-3.0509767 1.5130859,-5.3330079 1.5378906,-2.3068359 4.2664062,-3.5966796 2.75332,-1.2898438 6.3748049,-1.2898438 3.621484,0 6.30039,1.3642578 2.703711,1.3394531 4.216797,3.7951171 1.53789,2.4556641 1.661914,5.7546874 H 21.80332 Q 21.580078,7.3917968 19.174023,5.2585937 16.767968,3.1253906 12.848828,3.1253906 q -2.530078,0 -4.5144532,0.8929688 Q 6.3748046,4.9113281 5.2337889,6.4988281 4.117578,8.0615234 4.117578,10.095508 q 0,2.356445 1.7611328,3.91914 1.7611328,1.562696 5.7794922,2.629297 l 4.191992,1.141016 q 5.18418,1.364258 7.664648,3.770312 2.480469,2.38125 2.480469,6.101953 0,3.100586 -1.612305,5.457031 -1.612304,2.356446 -4.514453,3.695899 -2.877343,1.314648 -6.72207,1.314648 z m 26.9875,-0.04961 q -3.54707,0 -6.250781,-1.736328 -2.678906,-1.736328 -4.191992,-4.81211 -1.488281,-3.075781 -1.488281,-7.044531 0,-3.96875 1.488281,-7.044531 1.513086,-3.100586 4.191992,-4.836914 2.703711,-1.761133 6.250781,-1.761133 2.877344,0 5.18418,1.165821 2.306836,1.141015 3.770312,3.199804 1.488281,2.033985 1.909961,4.688086 H 47.749023 Q 47.20332,17.164843 45.218945,15.478124 43.259375,13.7666 40.133984,13.7666 q -3.96875,0 -6.35,2.951758 -2.356445,2.951758 -2.356445,7.763867 0,4.787305 2.356445,7.739063 2.356445,2.926953 6.35,2.926953 3.150195,0 5.035352,-1.661914 1.885156,-1.686719 2.530078,-4.464844 h 3.299023 q -0.42168,2.604492 -1.909961,4.663281 -1.488281,2.033985 -3.795117,3.22461 -2.282031,1.16582 -5.159375,1.16582 z M 54.19824,37.554296 V 11.360547 h 3.050976 v 4.365625 h 0.07441 q 0.818555,-2.108399 2.604492,-3.398242 1.810743,-1.289844 4.39043,-1.289844 0.471289,0 0.79375,0.04961 0.347266,0.02481 0.595313,0.04961 v 3.199804 q -0.223243,-0.04961 -0.719336,-0.124023 -0.496094,-0.07441 -1.190625,-0.07441 -2.678907,0 -4.564063,1.810742 -1.860351,1.810742 -1.860351,5.233789 v 16.371093 z m 13.766605,0 V 11.360547 h 3.175 v 26.193749 z m 1.5875,-31.8740226 q -0.942578,0 -1.637109,-0.6697266 -0.669727,-0.6697265 -0.669727,-1.6371093 0,-0.9673828 0.669727,-1.6371094 0.694531,-0.6697265 1.637109,-0.6697265 0.942578,0 1.612305,0.6697265 0.694531,0.6697266 0.694531,1.6371094 0,0.9673828 -0.694531,1.6371093 -0.669727,0.6697266 -1.612305,0.6697266 z M 88.007029,38.025586 q -2.951757,0 -5.333007,-1.438672 -2.356446,-1.438672 -3.571875,-3.993555 h -0.02481 v 4.960937 H 75.951951 V 0.5953125 h 3.175 V 16.29668 h 0.04961 q 1.091406,-2.505274 3.472656,-3.943946 2.406055,-1.463476 5.357812,-1.463476 3.348633,0 5.903516,1.711523 2.579687,1.711524 4.043164,4.7625 1.463474,3.050977 1.463474,7.094141 0,4.043164 -1.463474,7.118945 -1.438672,3.050976 -4.018359,4.7625 -2.554883,1.686719 -5.928321,1.686719 z m -0.446484,-2.926954 q 3.745508,0 6.176367,-2.75332 2.455664,-2.778125 2.455664,-7.88789 0,-5.109766 -2.455664,-7.887891 -2.430859,-2.778125 -6.176367,-2.778125 -3.943945,0 -6.300391,2.902149 -2.356445,2.902148 -2.356445,7.763867 0,4.861718 2.356445,7.763867 2.356446,2.877343 6.300391,2.877343 z m 25.672855,2.976563 q -3.6959,0 -6.3748,-1.761133 -2.6541,-1.761133 -4.11758,-4.812109 -1.43867,-3.075781 -1.43867,-7.019727 0,-3.943945 1.48828,-7.019726 1.51308,-3.100586 4.14238,-4.861719 2.6541,-1.761133 6.10195,-1.761133 3.57188,0 6.20118,1.736329 2.62929,1.711523 4.06797,4.762499 1.43867,3.026172 1.43867,6.945313 v 0.992187 h -20.26543 q 0.0992,4.365625 2.43086,7.118946 2.33164,2.75332 6.32519,2.75332 2.97656,0 5.06016,-1.488281 2.1084,-1.488282 2.80293,-3.943946 h 3.1998 q -0.5209,2.505274 -2.1084,4.39043 -1.56269,1.885156 -3.89433,2.926953 -2.30684,1.041797 -5.06016,1.041797 z m -8.73125,-15.602148 h 17.04082 q -0.24804,-3.943946 -2.57969,-6.35 -2.33164,-2.406055 -5.92832,-2.406055 -3.57187,0 -5.87871,2.406055 -2.30683,2.38125 -2.6541,6.35 z"
     id="path1" />
  <path
     style="font-weight:900;font-size:50.8px;font-family:'Inter Display';-inkscape-font-specification:'Inter Display Heavy';letter-spacing:-1.5875px;display:inline;stroke-width:2.16958"
     d="m 143.74317,38.149609 q -5.03535,0 -9.12812,-2.207617 -4.06797,-2.207617 -6.44922,-6.449219 -2.38125,-4.266406 -2.38125,-10.393164 0,-6.176367 2.38125,-10.4427732 2.38125,-4.2664061 6.44922,-6.4492186 Q 138.70782,0 143.74317,0 q 4.7377,0 8.40879,1.8107422 3.6959,1.8107422 5.97793,5.0849609 2.28203,3.2742189 2.77813,7.6398439 h -10.39317 q -0.47129,-2.629297 -2.20762,-4.117578 -1.71152,-1.4882811 -4.36562,-1.4882811 -3.74551,0 -5.75469,2.6541011 -1.98437,2.654102 -1.98437,7.51582 0,4.836914 1.98437,7.491016 1.98438,2.629297 5.75469,2.629297 2.6541,0 4.36562,-1.463477 1.73633,-1.488281 2.20762,-4.092773 h 10.39317 q -0.5209,4.365625 -2.80293,7.639843 -2.28204,3.249414 -5.95313,5.060156 -3.67109,1.785938 -8.40879,1.785938 z m 18.50429,-0.595313 V 0.5953125 h 15.42852 l 3.32383,11.5589845 q 0.5457,1.885156 1.31464,4.812109 0.76895,2.926953 1.46348,5.779492 0.69453,-2.852539 1.46348,-5.779492 0.76894,-2.926953 1.28984,-4.812109 l 3.27422,-11.5589845 h 15.45332 V 37.554296 H 195.13848 V 23.266797 q 0,-1.240235 0.0496,-3.175 0.0744,-1.959571 0.14882,-4.266406 0.0744,-2.331641 0.12403,-4.688086 -0.86817,3.497461 -1.76114,6.846093 -0.86816,3.348633 -1.46347,5.283399 l -4.29121,14.287499 h -8.33438 l -4.36562,-14.287499 q -0.57051,-1.885157 -1.43867,-5.084961 -0.86817,-3.199805 -1.76114,-6.598047 0.0992,3.423047 0.19844,6.672461 0.12402,3.224609 0.12402,5.010547 v 14.287499 z m 60.8707,0.595313 q -7.68945,0 -11.78222,-3.323828 -4.09278,-3.348633 -4.09278,-9.574609 h 9.74825 q 0.12402,2.257226 1.78593,3.522265 1.66192,1.240235 4.46485,1.240235 2.43086,0 3.91914,-0.892969 1.51308,-0.917774 1.51308,-2.356445 0,-1.339454 -1.46347,-2.182813 -1.46348,-0.843359 -4.58887,-1.438672 l -3.67109,-0.694531 q -5.35782,-1.016992 -8.18555,-3.770312 -2.82773,-2.753321 -2.82773,-6.870899 0,-3.5222655 1.90996,-6.176367 1.90996,-2.6541015 5.3082,-4.1423827 Q 218.5541,0 223.04375,0 q 6.92051,0 10.88926,3.2494141 3.99355,3.249414 4.16719,9.0537109 h -9.47539 q -0.17364,-1.934766 -1.63711,-3.0509771 -1.43868,-1.1162105 -3.74551,-1.1162105 -2.18281,0 -3.57188,0.8929685 -1.36425,0.892969 -1.36425,2.2820311 0,1.314649 1.31464,2.108399 1.31465,0.768945 4.192,1.289844 l 2.97656,0.545703 q 6.3748,1.16582 9.22734,3.745507 2.85254,2.554883 2.85254,6.994922 0,5.804297 -4.11758,8.979297 -4.11758,3.175 -11.6334,3.175 z"
     id="path2" />
</svg>
