<svg xmlns="http://www.w3.org/2000/svg" viewBox="0 0 220.861 38.1" fill="white">
  <path d="M13.146 38.1q-3.968 0-6.895-1.39-2.927-1.413-4.564-3.968Q.074 30.162 0 26.69h3.423q.1 3.845 2.654 6.102 2.58 2.232 7.07 2.232 4.266 0 6.87-1.984 2.605-1.985 2.605-5.284 0-2.53-1.761-4.142t-5.929-2.728l-4.142-1.117q-5.234-1.364-7.615-3.67Q.794 13.79.794 10.218q0-3.05 1.513-5.332Q3.845 2.58 6.573 1.29 9.327 0 12.948 0t6.3 1.364q2.704 1.34 4.217 3.795 1.538 2.456 1.662 5.755h-3.324q-.223-3.547-2.629-5.68T12.849 3.1q-2.53 0-4.515.893-1.96.893-3.1 2.48-1.116 1.563-1.116 3.597 0 2.356 1.76 3.919 1.762 1.563 5.78 2.63l4.192 1.14q5.184 1.364 7.665 3.77 2.48 2.382 2.48 6.102 0 3.101-1.612 5.457-1.612 2.357-4.514 3.696Q16.99 38.1 13.146 38.1m26.988-.05q-3.547 0-6.25-1.736-2.68-1.736-4.193-4.812-1.488-3.076-1.488-7.045t1.488-7.044q1.513-3.1 4.192-4.837 2.704-1.761 6.251-1.761 2.877 0 5.184 1.166 2.307 1.14 3.77 3.2 1.489 2.033 1.91 4.688H47.75q-.546-2.729-2.53-4.416-1.96-1.711-5.085-1.711-3.969 0-6.35 2.952-2.356 2.951-2.356 7.763 0 4.788 2.356 7.74 2.356 2.926 6.35 2.926 3.15 0 5.035-1.661 1.885-1.687 2.53-4.465H51q-.422 2.604-1.91 4.663-1.489 2.034-3.796 3.225-2.282 1.165-5.159 1.165m14.064-.52V11.335h3.051V15.7h.075q.818-2.108 2.604-3.398 1.81-1.29 4.39-1.29.472 0 .794.05.348.025.596.05v3.2q-.224-.05-.72-.125-.496-.074-1.19-.074-2.68 0-4.564 1.81-1.86 1.811-1.86 5.234V37.53zm13.767 0V11.335h3.175v26.193zm1.587-31.875q-.942 0-1.637-.67-.67-.669-.67-1.636 0-.968.67-1.637.695-.67 1.637-.67t1.613.67q.694.67.694 1.637t-.694 1.637q-.67.67-1.613.67m18.455 32.346q-2.952 0-5.333-1.439-2.356-1.439-3.572-3.993h-.025v4.96h-3.125V.571h3.175v15.7h.05q1.091-2.504 3.472-3.943 2.406-1.464 5.358-1.464 3.349 0 5.904 1.712 2.58 1.712 4.043 4.762 1.463 3.051 1.463 7.095t-1.463 7.119q-1.439 3.05-4.019 4.762-2.555 1.687-5.928 1.687m-.446-2.927q3.745 0 6.176-2.753 2.456-2.779 2.456-7.888 0-5.11-2.456-7.888-2.43-2.778-6.176-2.778-3.944 0-6.3 2.902-2.357 2.902-2.357 7.764 0 4.861 2.356 7.763 2.357 2.878 6.3 2.878m25.672 2.976q-3.696 0-6.374-1.76-2.654-1.762-4.118-4.813-1.439-3.076-1.439-7.02t1.489-7.02q1.513-3.1 4.142-4.861 2.654-1.761 6.102-1.761 3.572 0 6.201 1.736 2.63 1.712 4.068 4.763 1.439 3.026 1.439 6.945v.992h-20.266q.1 4.366 2.431 7.12 2.332 2.752 6.325 2.752 2.977 0 5.06-1.488 2.109-1.488 2.803-3.944h3.2q-.52 2.505-2.108 4.39-1.563 1.886-3.894 2.928-2.307 1.041-5.06 1.041m-8.73-15.602h17.04q-.248-3.944-2.58-6.35t-5.928-2.406q-3.572 0-5.879 2.406-2.307 2.381-2.654 6.35"/>
  <path d="M124.792 37.53 137.195.57h13.89l12.527 36.96h-11.609l-1.761-6.078h-12.353l-1.81 6.077zm15.479-14.015h7.689l-.1-.323q-.967-3.348-1.884-6.622-.918-3.275-1.811-6.648-.918 3.373-1.86 6.648t-1.935 6.622zm17.784-14.213V.57h31.354V9.3H178.89v28.23h-10.318V9.302Zm32.743 28.227V.571h15.701q4.415 0 7.64 1.587 3.224 1.563 4.96 4.465 1.762 2.877 1.762 6.846 0 3.944-1.761 6.846-1.737 2.902-4.961 4.49-3.225 1.562-7.64 1.562h-5.383V37.53zm10.318-19.645h4.614q2.332 0 3.696-1.19 1.364-1.191 1.364-3.225t-1.364-3.225q-1.364-1.19-3.696-1.19h-4.614z"/>
</svg>