<?xml version="1.0" encoding="UTF-8" standalone="no"?>
<!-- Created with Inkscape (http://www.inkscape.org/) -->

<svg
   width="220.86093mm"
   height="38.099998mm"
   viewBox="0 0 220.86093 38.099999"
   version="1.1"
   id="svg1"
   sodipodi:docname="ScribeATP LOGO.svg"
   inkscape:version="1.3.2 (091e20e, 2023-11-25, custom)"
   xmlns:inkscape="http://www.inkscape.org/namespaces/inkscape"
   xmlns:sodipodi="http://sodipodi.sourceforge.net/DTD/sodipodi-0.dtd"
   xmlns="http://www.w3.org/2000/svg"
   xmlns:svg="http://www.w3.org/2000/svg">
  <sodipodi:namedview
     id="namedview1"
     pagecolor="#ffffff"
     bordercolor="#000000"
     borderopacity="0.25"
     inkscape:showpageshadow="2"
     inkscape:pageopacity="0.0"
     inkscape:pagecheckerboard="0"
     inkscape:deskcolor="#d1d1d1"
     inkscape:document-units="mm"
     inkscape:zoom="1.6174566"
     inkscape:cx="549.62835"
     inkscape:cy="72.335789"
     inkscape:window-width="1920"
     inkscape:window-height="992"
     inkscape:window-x="-8"
     inkscape:window-y="1342"
     inkscape:window-maximized="1"
     inkscape:current-layer="svg1" />
  <defs
     id="defs1" />
  <path
     style="font-weight:300;font-size:50.8px;font-family:'Inter Display';-inkscape-font-specification:'Inter Display Light';letter-spacing:-1.5875px;display:inline;stroke-width:2.16958"
     d="m 13.146484,38.099999 q -3.9687499,0 -6.8957029,-1.389062 Q 3.323828,35.29707 1.6867187,32.742187 0.074414,30.162499 0,26.689843 h 3.4230468 q 0.099219,3.844727 2.6541015,6.101953 2.5796878,2.232422 7.0693357,2.232422 4.266406,0 6.870898,-1.984375 2.604493,-1.984375 2.604493,-5.283398 0,-2.530078 -1.761133,-4.142383 -1.761133,-1.612305 -5.92832,-2.728516 L 10.790039,19.769335 Q 5.5562499,18.405078 3.1749999,16.098242 0.79375,13.791406 0.79375,10.219531 0.79375,7.1685546 2.3068359,4.8865234 3.8447265,2.5796875 6.5732421,1.2898438 9.3265621,0 12.948047,0 q 3.621484,0 6.30039,1.3642578 2.703711,1.3394531 4.216797,3.7951171 1.53789,2.4556641 1.661914,5.7546871 H 21.80332 Q 21.580078,7.3669921 19.174023,5.233789 16.767968,3.1005859 12.848828,3.1005859 q -2.530078,0 -4.5144532,0.8929688 Q 6.3748046,4.8865234 5.2337889,6.4740234 4.117578,8.0367187 4.117578,10.070703 q 0,2.356445 1.7611328,3.91914 1.7611328,1.562696 5.7794922,2.629297 l 4.191992,1.141016 q 5.18418,1.364258 7.664648,3.770312 2.480469,2.38125 2.480469,6.101953 0,3.100586 -1.612305,5.457031 -1.612304,2.356446 -4.514453,3.695899 -2.877343,1.314648 -6.72207,1.314648 z m 26.9875,-0.04961 q -3.54707,0 -6.250781,-1.736328 -2.678906,-1.736328 -4.191992,-4.81211 -1.488281,-3.075781 -1.488281,-7.044531 0,-3.96875 1.488281,-7.044531 1.513086,-3.100586 4.191992,-4.836914 2.703711,-1.761133 6.250781,-1.761133 2.877344,0 5.18418,1.165821 2.306836,1.141015 3.770312,3.199804 1.488281,2.033985 1.909961,4.688086 h -3.249414 q -0.545703,-2.728515 -2.530078,-4.415234 -1.95957,-1.711524 -5.084961,-1.711524 -3.96875,0 -6.35,2.951758 -2.356445,2.951758 -2.356445,7.763867 0,4.787305 2.356445,7.739063 2.356445,2.926953 6.35,2.926953 3.150195,0 5.035352,-1.661914 1.885156,-1.686719 2.530078,-4.464844 h 3.299023 q -0.42168,2.604492 -1.909961,4.663281 -1.488281,2.033985 -3.795117,3.22461 -2.282031,1.16582 -5.159375,1.16582 z M 54.19824,37.529491 V 11.335742 h 3.050976 v 4.365625 h 0.07441 q 0.818555,-2.108399 2.604492,-3.398242 1.810743,-1.289844 4.39043,-1.289844 0.471289,0 0.79375,0.04961 0.347266,0.02481 0.595313,0.04961 v 3.199804 q -0.223243,-0.04961 -0.719336,-0.124023 -0.496094,-0.07441 -1.190625,-0.07441 -2.678907,0 -4.564063,1.810742 -1.860351,1.810742 -1.860351,5.233789 v 16.371093 z m 13.766605,0 V 11.335742 h 3.175 v 26.193749 z m 1.5875,-31.8740223 q -0.942578,0 -1.637109,-0.6697266 -0.669727,-0.6697265 -0.669727,-1.6371093 0,-0.9673828 0.669727,-1.6371094 0.694531,-0.6697265 1.637109,-0.6697265 0.942578,0 1.612305,0.6697265 0.694531,0.6697266 0.694531,1.6371094 0,0.9673828 -0.694531,1.6371093 -0.669727,0.6697266 -1.612305,0.6697266 z M 88.007029,38.000781 q -2.951757,0 -5.333007,-1.438672 -2.356446,-1.438672 -3.571875,-3.993555 h -0.02481 v 4.960937 H 75.951951 V 0.5705078 h 3.175 V 16.271875 h 0.04961 q 1.091406,-2.505274 3.472656,-3.943946 2.406055,-1.463476 5.357812,-1.463476 3.348633,0 5.903516,1.711523 2.579687,1.711524 4.043164,4.7625 1.463474,3.050977 1.463474,7.094141 0,4.043164 -1.463474,7.118945 -1.438672,3.050976 -4.018359,4.7625 -2.554883,1.686719 -5.928321,1.686719 z m -0.446484,-2.926954 q 3.745508,0 6.176367,-2.75332 2.455664,-2.778125 2.455664,-7.88789 0,-5.109766 -2.455664,-7.887891 -2.430859,-2.778125 -6.176367,-2.778125 -3.943945,0 -6.300391,2.902149 -2.356445,2.902148 -2.356445,7.763867 0,4.861718 2.356445,7.763867 2.356446,2.877343 6.300391,2.877343 z M 113.2334,38.05039 q -3.6959,0 -6.3748,-1.761133 -2.6541,-1.761133 -4.11758,-4.812109 -1.43867,-3.075781 -1.43867,-7.019727 0,-3.943945 1.48828,-7.019726 1.51308,-3.100586 4.14238,-4.861719 2.6541,-1.761133 6.10195,-1.761133 3.57188,0 6.20118,1.736329 2.62929,1.711523 4.06797,4.762499 1.43867,3.026172 1.43867,6.945313 v 0.992187 h -20.26543 q 0.0992,4.365625 2.43086,7.118946 2.33164,2.75332 6.32519,2.75332 2.97656,0 5.06016,-1.488281 2.1084,-1.488282 2.80293,-3.943946 h 3.1998 q -0.5209,2.505274 -2.1084,4.39043 -1.56269,1.885156 -3.89433,2.926953 -2.30684,1.041797 -5.06016,1.041797 z m -8.73125,-15.602148 h 17.04082 q -0.24804,-3.943946 -2.57969,-6.35 -2.33164,-2.406055 -5.92832,-2.406055 -3.57187,0 -5.87871,2.406055 -2.30683,2.38125 -2.6541,6.35 z"
     id="path1" />
  <path
     style="font-weight:900;font-size:50.8px;font-family:'Inter Display';-inkscape-font-specification:'Inter Display Heavy';letter-spacing:-1.5875px;display:inline;stroke-width:2.16958"
     d="M 124.79239,37.529491 137.19473,0.5705078 h 13.89063 l 12.52637,36.9589832 h -11.6086 L 150.242,31.452343 h -12.35273 l -1.81075,6.077148 z m 15.47813,-14.014648 h 7.68945 l -0.0992,-0.322461 q -0.96738,-3.348632 -1.88516,-6.622851 -0.91777,-3.274219 -1.81074,-6.6476558 -0.91777,3.3734368 -1.86035,6.6476558 -0.94258,3.274219 -1.93477,6.622851 z M 158.05548,9.3017572 V 0.5705078 H 189.4086 V 9.3017572 H 178.89141 V 37.529491 H 168.57266 V 9.3017572 Z M 190.79766,37.529491 V 0.5705078 h 15.70137 q 4.41523,0 7.63984,1.5875 3.22461,1.5626953 4.96094,4.4648437 1.76113,2.8773437 1.76113,6.8460935 0,3.943945 -1.76113,6.846094 -1.73633,2.902148 -4.96094,4.489648 -3.22461,1.562695 -7.63984,1.562695 h -5.38262 v 11.162109 z m 10.31875,-19.645312 h 4.61367 q 2.33165,0 3.6959,-1.190625 1.36426,-1.190625 1.36426,-3.224609 0,-2.033984 -1.36426,-3.224609 -1.36425,-1.1906248 -3.6959,-1.1906248 h -4.61367 z"
     id="path2" />
</svg>
